<?xml version="1.0" standalone="no"?>
<svg viewBox="0 0 200 200" xmlns="http://www.w3.org/2000/svg">
  <path fill="#7854F7" d="M38.3,-61.2C52.4,-58.2,68.4,-53.5,73.9,-43C79.4,-32.5,74.5,-16.2,71.5,-1.7C68.5,12.8,67.5,25.6,62.7,37.4C57.9,49.1,49.3,59.8,38.2,68.5C27.2,77.1,13.6,83.6,0.6,82.6C-12.4,81.5,-24.7,72.9,-34.7,63.6C-44.6,54.3,-52.1,44.3,-61.5,33.6C-70.8,22.9,-82.1,11.5,-83.1,-0.6C-84.1,-12.7,-74.9,-25.3,-67.1,-38.7C-59.3,-52.2,-53,-66.4,-42,-71.2C-31,-75.9,-15.5,-71.2,-1.7,-68.3C12.1,-65.3,24.2,-64.2,38.3,-61.2Z" transform="translate(100 100)" />
</svg>
