<?xml version="1.0" standalone="no"?>
<svg viewBox="0 0 200 200" xmlns="http://www.w3.org/2000/svg">
  <path fill="#7854F7" d="M29.2,-46.8C40.4,-38.3,53.7,-34.4,60.3,-25.8C66.9,-17.2,66.9,-3.8,67.2,11.3C67.5,26.3,68.2,43,59.9,51.1C51.6,59.2,34.3,58.7,18.9,62.2C3.5,65.7,-10.1,73.2,-25.4,74.3C-40.7,75.4,-57.7,70,-65,58.2C-72.3,46.4,-69.9,28,-66.7,13C-63.6,-2,-59.7,-13.8,-57.3,-29.1C-54.9,-44.5,-53.9,-63.4,-44.6,-72.8C-35.3,-82.2,-17.6,-82,-4.3,-75.3C9,-68.5,18,-55.3,29.2,-46.8Z" transform="translate(100 100)" />
</svg>
